<svg xmlns="http://www.w3.org/2000/svg" viewBox="0 12.149999618530273 202.64999389648438 35.69999694824219" data-asc="0.95" width="202.64999389648438" height="35.69999694824219" ><defs/><g fill="#155dfc"><g transform="translate(0, 0)"><path d="M0 12.50L26.85 12.50L26.85 16.70L15.95 16.70L15.95 47.50L10.95 47.50L10.95 16.70L0 16.70L0 12.50ZM47.45 47.85Q43.75 47.85 40.53 46.55Q37.30 45.25 34.90 42.88Q32.50 40.50 31.15 37.23Q29.80 33.95 29.80 30Q29.80 26.05 31.15 22.80Q32.50 19.55 34.90 17.15Q37.30 14.75 40.53 13.45Q43.75 12.15 47.45 12.15Q51.10 12.15 54.30 13.45Q57.50 14.75 59.90 17.15Q62.30 19.55 63.65 22.80Q65 26.05 65 30Q65 33.95 63.65 37.23Q62.30 40.50 59.90 42.88Q57.50 45.25 54.30 46.55Q51.10 47.85 47.45 47.85M47.45 43.55Q51 43.55 53.83 41.90Q56.65 40.25 58.30 37.20Q59.95 34.15 59.95 30Q59.95 25.80 58.30 22.77Q56.65 19.75 53.83 18.10Q51 16.45 47.45 16.45Q43.85 16.45 41 18.10Q38.15 19.75 36.52 22.77Q34.90 25.80 34.90 30Q34.90 34.15 36.52 37.20Q38.15 40.25 41 41.90Q43.85 43.55 47.45 43.55ZM82.90 12.50Q88.60 12.50 92.73 14.65Q96.85 16.80 99.13 20.75Q101.40 24.70 101.40 30.15Q101.40 35.55 99.13 39.42Q96.85 43.30 92.73 45.40Q88.60 47.50 82.90 47.50L70.90 47.50L70.90 12.50L82.90 12.50M82.90 43.30Q89.50 43.30 92.93 39.83Q96.35 36.35 96.35 30.15Q96.35 23.85 92.93 20.27Q89.50 16.70 82.90 16.70L75.90 16.70L75.90 43.30L82.90 43.30ZM123.05 47.85Q119.35 47.85 116.13 46.55Q112.90 45.25 110.50 42.88Q108.10 40.50 106.75 37.23Q105.40 33.95 105.40 30Q105.40 26.05 106.75 22.80Q108.10 19.55 110.50 17.15Q112.90 14.75 116.13 13.45Q119.35 12.15 123.05 12.15Q126.70 12.15 129.90 13.45Q133.10 14.75 135.50 17.15Q137.90 19.55 139.25 22.80Q140.60 26.05 140.60 30Q140.60 33.95 139.25 37.23Q137.90 40.50 135.50 42.88Q133.10 45.25 129.90 46.55Q126.70 47.85 123.05 47.85M123.05 43.55Q126.60 43.55 129.43 41.90Q132.25 40.25 133.90 37.20Q135.55 34.15 135.55 30Q135.55 25.80 133.90 22.77Q132.25 19.75 129.43 18.10Q126.60 16.45 123.05 16.45Q119.45 16.45 116.60 18.10Q113.75 19.75 112.13 22.77Q110.50 25.80 110.50 30Q110.50 34.15 112.13 37.20Q113.75 40.25 116.60 41.90Q119.45 43.55 123.05 43.55ZM169.90 16.70L151.50 16.70L151.50 27.65L165.30 27.65L165.30 31.85L151.50 31.85L151.50 43.30L169.90 43.30L169.90 47.50L146.50 47.50L146.50 12.50L169.90 12.50L169.90 16.70ZM196.90 22.95Q196.90 20.10 195.20 18.40Q193.50 16.70 189.80 16.70L181.80 16.70L181.80 29.15L189.85 29.15Q192.30 29.15 193.85 28.38Q195.40 27.60 196.15 26.20Q196.90 24.80 196.90 22.95M189.80 12.50Q193.95 12.50 196.63 13.92Q199.30 15.35 200.63 17.70Q201.95 20.05 201.95 22.95Q201.95 24.85 201.30 26.70Q200.65 28.55 199.20 30.07Q197.75 31.60 195.43 32.48Q193.10 33.35 189.85 33.35L181.80 33.35L181.80 47.50L176.80 47.50L176.80 12.50L189.80 12.50M193.00 31.65L202.65 47.50L197.00 47.50L187.70 31.65L193.00 31.65Z"/></g></g></svg>